<svg width="144" height="35" viewBox="0 0 144 35" fill="none" xmlns="http://www.w3.org/2000/svg">
<path d="M137.009 19.175C135.893 19.175 134.818 19.0333 133.784 18.75C132.768 18.45 131.959 18.0917 131.359 17.675L132.559 15.3C133.159 15.6833 133.876 16 134.709 16.25C135.543 16.5 136.376 16.625 137.209 16.625C138.193 16.625 138.901 16.4917 139.334 16.225C139.784 15.9583 140.009 15.6 140.009 15.15C140.009 14.7833 139.859 14.5083 139.559 14.325C139.259 14.125 138.868 13.975 138.384 13.875C137.901 13.775 137.359 13.6833 136.759 13.6C136.176 13.5167 135.584 13.4083 134.984 13.275C134.401 13.125 133.868 12.9167 133.384 12.65C132.901 12.3667 132.509 11.9917 132.209 11.525C131.909 11.0583 131.759 10.4417 131.759 9.675C131.759 8.825 132.001 8.09167 132.484 7.475C132.968 6.84167 133.643 6.35833 134.509 6.025C135.393 5.675 136.434 5.5 137.634 5.5C138.534 5.5 139.443 5.6 140.359 5.8C141.276 6 142.034 6.28333 142.634 6.65L141.434 9.025C140.801 8.64167 140.159 8.38333 139.509 8.25C138.876 8.1 138.243 8.025 137.609 8.025C136.659 8.025 135.951 8.16667 135.484 8.45C135.034 8.73333 134.809 9.09167 134.809 9.525C134.809 9.925 134.959 10.225 135.259 10.425C135.559 10.625 135.951 10.7833 136.434 10.9C136.918 11.0167 137.451 11.1167 138.034 11.2C138.634 11.2667 139.226 11.375 139.809 11.525C140.393 11.675 140.926 11.8833 141.409 12.15C141.909 12.4 142.309 12.7583 142.609 13.225C142.909 13.6917 143.059 14.3 143.059 15.05C143.059 15.8833 142.809 16.6083 142.309 17.225C141.826 17.8417 141.134 18.325 140.234 18.675C139.334 19.0083 138.259 19.175 137.009 19.175Z" fill="white"/>
<path d="M127.314 19.1742C125.847 19.1742 124.714 18.7992 123.914 18.0492C123.114 17.2826 122.714 16.1576 122.714 14.6742V2.69922H125.839V14.5992C125.839 15.2326 125.997 15.7242 126.314 16.0742C126.647 16.4242 127.105 16.5992 127.689 16.5992C128.389 16.5992 128.972 16.4159 129.439 16.0492L130.314 18.2742C129.947 18.5742 129.497 18.7992 128.964 18.9492C128.43 19.0992 127.88 19.1742 127.314 19.1742ZM120.514 8.24922V5.74922H129.414V8.24922H120.514Z" fill="white"/>
<path d="M112.749 5.5C113.815 5.5 114.765 5.70833 115.599 6.125C116.449 6.54167 117.115 7.18333 117.599 8.05C118.082 8.9 118.324 10 118.324 11.35V19H115.199V11.75C115.199 10.5667 114.915 9.68333 114.349 9.1C113.799 8.51667 113.024 8.225 112.024 8.225C111.29 8.225 110.64 8.375 110.074 8.675C109.507 8.975 109.065 9.425 108.749 10.025C108.449 10.6083 108.299 11.35 108.299 12.25V19H105.174V5.65H108.149V9.25L107.624 8.15C108.09 7.3 108.765 6.65 109.649 6.2C110.549 5.73333 111.582 5.5 112.749 5.5Z" fill="white"/>
<path d="M98.2141 19V16.3L98.0391 15.725V11C98.0391 10.0833 97.7641 9.375 97.2141 8.875C96.6641 8.35833 95.8307 8.1 94.7141 8.1C93.9641 8.1 93.2224 8.21667 92.4891 8.45C91.7724 8.68333 91.1641 9.00833 90.6641 9.425L89.4391 7.15C90.1557 6.6 91.0057 6.19167 91.9891 5.925C92.9891 5.64167 94.0224 5.5 95.0891 5.5C97.0224 5.5 98.5141 5.96667 99.5641 6.9C100.631 7.81667 101.164 9.24167 101.164 11.175V19H98.2141ZM94.0141 19.175C93.0141 19.175 92.1391 19.0083 91.3891 18.675C90.6391 18.325 90.0557 17.85 89.6391 17.25C89.2391 16.6333 89.0391 15.9417 89.0391 15.175C89.0391 14.425 89.2141 13.75 89.5641 13.15C89.9307 12.55 90.5224 12.075 91.3391 11.725C92.1557 11.375 93.2391 11.2 94.5891 11.2H98.4641V13.275H94.8141C93.7474 13.275 93.0307 13.45 92.6641 13.8C92.2974 14.1333 92.1141 14.55 92.1141 15.05C92.1141 15.6167 92.3391 16.0667 92.7891 16.4C93.2391 16.7333 93.8641 16.9 94.6641 16.9C95.4307 16.9 96.1141 16.725 96.7141 16.375C97.3307 16.025 97.7724 15.5083 98.0391 14.825L98.5641 16.7C98.2641 17.4833 97.7224 18.0917 96.9391 18.525C96.1724 18.9583 95.1974 19.175 94.0141 19.175Z" fill="white"/>
<path d="M82.7617 18.9992V0.449219H85.8867V18.9992H82.7617Z" fill="white"/>
<path d="M64.9219 19V1.5H72.1219C73.6719 1.5 74.9969 1.75 76.0969 2.25C77.2135 2.75 78.0719 3.46667 78.6719 4.4C79.2719 5.33333 79.5719 6.44167 79.5719 7.725C79.5719 9.00833 79.2719 10.1167 78.6719 11.05C78.0719 11.9833 77.2135 12.7 76.0969 13.2C74.9969 13.7 73.6719 13.95 72.1219 13.95H66.7219L68.1719 12.425V19H64.9219ZM68.1719 12.775L66.7219 11.2H71.9719C73.4052 11.2 74.4802 10.9 75.1969 10.3C75.9302 9.68333 76.2969 8.825 76.2969 7.725C76.2969 6.60833 75.9302 5.75 75.1969 5.15C74.4802 4.55 73.4052 4.25 71.9719 4.25H66.7219L68.1719 2.65V12.775Z" fill="white"/>
<path d="M57.6633 19V16.3L57.4883 15.725V11C57.4883 10.0833 57.2133 9.375 56.6633 8.875C56.1133 8.35833 55.28 8.1 54.1633 8.1C53.4133 8.1 52.6716 8.21667 51.9383 8.45C51.2216 8.68333 50.6133 9.00833 50.1133 9.425L48.8883 7.15C49.6049 6.6 50.4549 6.19167 51.4383 5.925C52.4383 5.64167 53.4716 5.5 54.5383 5.5C56.4716 5.5 57.9633 5.96667 59.0133 6.9C60.0799 7.81667 60.6133 9.24167 60.6133 11.175V19H57.6633ZM53.4633 19.175C52.4633 19.175 51.5883 19.0083 50.8383 18.675C50.0883 18.325 49.505 17.85 49.0883 17.25C48.6883 16.6333 48.4883 15.9417 48.4883 15.175C48.4883 14.425 48.6633 13.75 49.0133 13.15C49.3799 12.55 49.9716 12.075 50.7883 11.725C51.605 11.375 52.6883 11.2 54.0383 11.2H57.9133V13.275H54.2633C53.1966 13.275 52.4799 13.45 52.1133 13.8C51.7466 14.1333 51.5633 14.55 51.5633 15.05C51.5633 15.6167 51.7883 16.0667 52.2383 16.4C52.6883 16.7333 53.3133 16.9 54.1133 16.9C54.88 16.9 55.5633 16.725 56.1633 16.375C56.78 16.025 57.2216 15.5083 57.4883 14.825L58.0133 16.7C57.7133 17.4833 57.1716 18.0917 56.3883 18.525C55.6216 18.9583 54.6466 19.175 53.4633 19.175Z" fill="white"/>
<path d="M36.3371 16.0242L36.4121 12.0992L43.3871 5.64922H47.1371L41.2121 11.5992L39.5621 12.9742L36.3371 16.0242ZM33.7871 18.9992V0.449219H36.9121V18.9992H33.7871ZM43.8621 18.9992L38.9871 12.9742L40.9621 10.4742L47.6621 18.9992H43.8621Z" fill="white"/>
<path d="M22.4219 19.1734C21.2885 19.1734 20.2885 18.9651 19.4219 18.5484C18.5552 18.1151 17.8802 17.4651 17.3969 16.5984C16.9135 15.7151 16.6719 14.6068 16.6719 13.2734V5.64844H19.7969V12.8484C19.7969 14.0484 20.0635 14.9484 20.5969 15.5484C21.1469 16.1318 21.9219 16.4234 22.9219 16.4234C23.6552 16.4234 24.2885 16.2734 24.8219 15.9734C25.3719 15.6734 25.7969 15.2234 26.0969 14.6234C26.4135 14.0234 26.5719 13.2818 26.5719 12.3984V5.64844H29.6969V18.9984H26.7219V15.3984L27.2469 16.4984C26.7969 17.3651 26.1385 18.0318 25.2719 18.4984C24.4052 18.9484 23.4552 19.1734 22.4219 19.1734Z" fill="white"/>
<path d="M5.89961 19V4.25H0.0996094V1.5H14.9496V4.25H9.14961V19H5.89961Z" fill="white"/>
<path d="M116.718 33.0778C116.521 33.0778 116.337 33.0458 116.166 32.9818C116.001 32.9125 115.854 32.8191 115.726 32.7018C115.603 32.5845 115.507 32.4485 115.438 32.2938C115.369 32.1338 115.334 31.9631 115.334 31.7818C115.334 31.6005 115.377 31.4325 115.462 31.2778C115.547 31.1231 115.667 30.9898 115.822 30.8778C115.977 30.7658 116.161 30.6805 116.374 30.6218C116.587 30.5578 116.822 30.5258 117.078 30.5258C117.291 30.5258 117.507 30.5445 117.726 30.5818C117.945 30.6191 118.139 30.6725 118.31 30.7418V30.3658C118.31 29.9978 118.206 29.7071 117.998 29.4938C117.79 29.2751 117.502 29.1658 117.134 29.1658C116.921 29.1658 116.702 29.2085 116.478 29.2938C116.254 29.3791 116.027 29.5018 115.798 29.6618L115.606 29.3018C116.145 28.9391 116.667 28.7578 117.174 28.7578C117.697 28.7578 118.107 28.9045 118.406 29.1978C118.705 29.4911 118.854 29.8965 118.854 30.4138V32.2938C118.854 32.4431 118.921 32.5178 119.054 32.5178V32.9978C118.963 33.0138 118.894 33.0218 118.846 33.0218C118.707 33.0218 118.598 32.9871 118.518 32.9178C118.443 32.8485 118.403 32.7525 118.398 32.6298L118.382 32.3018C118.19 32.5525 117.947 32.7445 117.654 32.8778C117.366 33.0111 117.054 33.0778 116.718 33.0778ZM116.846 32.6618C117.129 32.6618 117.387 32.6085 117.622 32.5018C117.862 32.3951 118.043 32.2538 118.166 32.0778C118.214 32.0298 118.249 31.9791 118.27 31.9258C118.297 31.8671 118.31 31.8138 118.31 31.7658V31.0858C118.129 31.0165 117.939 30.9631 117.742 30.9258C117.55 30.8885 117.353 30.8698 117.15 30.8698C116.766 30.8698 116.454 30.9498 116.214 31.1098C115.974 31.2698 115.854 31.4805 115.854 31.7418C115.854 31.8698 115.878 31.9898 115.926 32.1018C115.979 32.2138 116.049 32.3125 116.134 32.3978C116.225 32.4778 116.331 32.5418 116.454 32.5898C116.577 32.6378 116.707 32.6618 116.846 32.6618Z" fill="white"/>
<path d="M112.375 31.6381L113.935 28.8301H114.463V32.9981H113.935V29.7981L112.535 32.3021H112.215L110.807 29.7981V32.9981H110.271V28.8301H110.815L112.375 31.6381Z" fill="white"/>
<path d="M107.281 33.0778C106.977 33.0778 106.699 33.0218 106.449 32.9098C106.198 32.7925 105.979 32.6351 105.793 32.4378C105.611 32.2405 105.47 32.0111 105.369 31.7498C105.267 31.4885 105.217 31.2138 105.217 30.9258C105.217 30.6325 105.267 30.3551 105.369 30.0938C105.475 29.8325 105.619 29.6031 105.801 29.4058C105.987 29.2085 106.206 29.0511 106.457 28.9338C106.707 28.8165 106.982 28.7578 107.281 28.7578C107.579 28.7578 107.854 28.8165 108.105 28.9338C108.361 29.0511 108.579 29.2085 108.761 29.4058C108.947 29.6031 109.091 29.8325 109.193 30.0938C109.299 30.3551 109.353 30.6325 109.353 30.9258C109.353 31.2138 109.302 31.4885 109.201 31.7498C109.099 32.0111 108.955 32.2405 108.769 32.4378C108.587 32.6351 108.369 32.7925 108.113 32.9098C107.862 33.0218 107.585 33.0778 107.281 33.0778ZM105.769 30.9338C105.769 31.1685 105.809 31.3871 105.889 31.5898C105.969 31.7871 106.075 31.9631 106.209 32.1178C106.347 32.2671 106.507 32.3845 106.689 32.4698C106.875 32.5551 107.073 32.5978 107.281 32.5978C107.489 32.5978 107.683 32.5551 107.865 32.4698C108.051 32.3791 108.214 32.2591 108.353 32.1098C108.491 31.9551 108.601 31.7765 108.681 31.5738C108.761 31.3711 108.801 31.1525 108.801 30.9178C108.801 30.6885 108.761 30.4725 108.681 30.2698C108.601 30.0618 108.491 29.8831 108.353 29.7338C108.214 29.5791 108.051 29.4591 107.865 29.3738C107.683 29.2831 107.489 29.2378 107.281 29.2378C107.073 29.2378 106.878 29.2831 106.697 29.3738C106.515 29.4591 106.355 29.5791 106.217 29.7338C106.078 29.8885 105.969 30.0698 105.889 30.2778C105.809 30.4805 105.769 30.6991 105.769 30.9338Z" fill="white"/>
<path d="M100.479 32.5261H100.719C100.836 32.4994 100.937 32.4407 101.023 32.3501C101.113 32.2541 101.193 32.1101 101.263 31.9181C101.332 31.7207 101.393 31.4647 101.447 31.1501C101.5 30.8301 101.556 30.4327 101.615 29.9581L101.743 28.8301H104.183V32.5261H104.695V34.2861H104.215V32.9981H100.935V34.2861H100.479V32.5261ZM103.655 32.5261V29.2621H102.247L102.127 30.1901C102.036 30.8514 101.937 31.3687 101.831 31.7421C101.729 32.1154 101.607 32.3767 101.463 32.5261H103.655Z" fill="white"/>
<path d="M95.7022 31.3421C95.4462 31.2674 95.2356 31.1314 95.0702 30.9341C94.9049 30.7314 94.8222 30.4621 94.8222 30.1261C94.8222 29.9394 94.8569 29.7661 94.9262 29.6061C94.9956 29.4461 95.0889 29.3101 95.2062 29.1981C95.3289 29.0807 95.4729 28.9901 95.6382 28.9261C95.8089 28.8621 95.9956 28.8301 96.1982 28.8301H97.6862V32.9981H97.1502V31.4141H96.2462L95.1902 32.9981H94.5742L95.7022 31.3421ZM97.1502 30.9421V29.3021H96.2222C96.1102 29.3021 96.0009 29.3207 95.8942 29.3581C95.7929 29.3954 95.7022 29.4514 95.6222 29.5261C95.5422 29.5954 95.4782 29.6807 95.4302 29.7821C95.3822 29.8834 95.3582 29.9981 95.3582 30.1261C95.3582 30.3714 95.4302 30.5687 95.5742 30.7181C95.7236 30.8674 95.9182 30.9421 96.1582 30.9421H97.1502Z" fill="white"/>
<path d="M90.0781 32.5421C90.2275 32.5314 90.3581 32.4914 90.4701 32.4221C90.5821 32.3474 90.6781 32.2167 90.7581 32.0301C90.8435 31.8381 90.9155 31.5767 90.9741 31.2461C91.0381 30.9154 91.0995 30.4861 91.1581 29.9581L91.2781 28.8301H93.7261V32.9981H93.1901V29.2621H91.7821L91.6701 30.1901C91.6008 30.7447 91.5235 31.2034 91.4381 31.5661C91.3528 31.9234 91.2515 32.2114 91.1341 32.4301C91.0221 32.6434 90.8861 32.7954 90.7261 32.8861C90.5661 32.9714 90.3795 33.0194 90.1661 33.0301L90.0781 32.5421Z" fill="white"/>
<path d="M85.5566 32.5261H85.7966C85.914 32.4994 86.0153 32.4407 86.1006 32.3501C86.1913 32.2541 86.2713 32.1101 86.3406 31.9181C86.41 31.7207 86.4713 31.4647 86.5246 31.1501C86.578 30.8301 86.634 30.4327 86.6926 29.9581L86.8206 28.8301H89.2606V32.5261H89.7726V34.2861H89.2926V32.9981H86.0126V34.2861H85.5566V32.5261ZM88.7326 32.5261V29.2621H87.3246L87.2046 30.1901C87.114 30.8514 87.0153 31.3687 86.9086 31.7421C86.8073 32.1154 86.6846 32.3767 86.5406 32.5261H88.7326Z" fill="white"/>
<path d="M81.8505 28.8301C81.9999 28.8301 82.1359 28.8567 82.2585 28.9101C82.3865 28.9634 82.4959 29.0381 82.5865 29.1341C82.6825 29.2247 82.7545 29.3314 82.8025 29.4541C82.8559 29.5767 82.8825 29.7101 82.8825 29.8541C82.8825 29.9501 82.8692 30.0461 82.8425 30.1421C82.8212 30.2381 82.7865 30.3314 82.7385 30.4221C82.6905 30.5074 82.6292 30.5874 82.5545 30.6621C82.4799 30.7314 82.3919 30.7874 82.2905 30.8301C82.5252 30.8941 82.7092 31.0167 82.8425 31.1981C82.9759 31.3794 83.0425 31.5981 83.0425 31.8541C83.0425 32.0247 83.0105 32.1794 82.9465 32.3181C82.8879 32.4567 82.8025 32.5767 82.6905 32.6781C82.5839 32.7794 82.4559 32.8594 82.3065 32.9181C82.1572 32.9714 81.9945 32.9981 81.8185 32.9981H79.8105V28.8301H81.8505ZM81.6345 30.6701C81.8532 30.6701 82.0265 30.6007 82.1545 30.4621C82.2825 30.3234 82.3465 30.1474 82.3465 29.9341C82.3465 29.7474 82.2932 29.5847 82.1865 29.4461C82.0799 29.3074 81.9145 29.2381 81.6905 29.2381H80.3385V30.6701H81.6345ZM81.7625 32.5901C81.8745 32.5901 81.9759 32.5687 82.0665 32.5261C82.1625 32.4834 82.2425 32.4274 82.3065 32.3581C82.3705 32.2834 82.4212 32.2007 82.4585 32.1101C82.4959 32.0194 82.5145 31.9234 82.5145 31.8221C82.5145 31.6301 82.4479 31.4594 82.3145 31.3101C82.1865 31.1607 82.0079 31.0861 81.7785 31.0861H80.3385V32.5901H81.7625Z" fill="white"/>
<path d="M76.8042 33.0778C76.5002 33.0778 76.2229 33.0218 75.9722 32.9098C75.7216 32.7925 75.5029 32.6351 75.3162 32.4378C75.1349 32.2405 74.9936 32.0111 74.8922 31.7498C74.7909 31.4885 74.7402 31.2138 74.7402 30.9258C74.7402 30.6325 74.7909 30.3551 74.8922 30.0938C74.9989 29.8325 75.1429 29.6031 75.3242 29.4058C75.5109 29.2085 75.7296 29.0511 75.9802 28.9338C76.2309 28.8165 76.5056 28.7578 76.8042 28.7578C77.1029 28.7578 77.3776 28.8165 77.6282 28.9338C77.8842 29.0511 78.1029 29.2085 78.2842 29.4058C78.4709 29.6031 78.6149 29.8325 78.7162 30.0938C78.8229 30.3551 78.8762 30.6325 78.8762 30.9258C78.8762 31.2138 78.8256 31.4885 78.7242 31.7498C78.6229 32.0111 78.4789 32.2405 78.2922 32.4378C78.1109 32.6351 77.8922 32.7925 77.6362 32.9098C77.3856 33.0218 77.1082 33.0778 76.8042 33.0778ZM75.2922 30.9338C75.2922 31.1685 75.3322 31.3871 75.4122 31.5898C75.4922 31.7871 75.5989 31.9631 75.7322 32.1178C75.8709 32.2671 76.0309 32.3845 76.2122 32.4698C76.3989 32.5551 76.5962 32.5978 76.8042 32.5978C77.0122 32.5978 77.2069 32.5551 77.3882 32.4698C77.5749 32.3791 77.7376 32.2591 77.8762 32.1098C78.0149 31.9551 78.1242 31.7765 78.2042 31.5738C78.2842 31.3711 78.3242 31.1525 78.3242 30.9178C78.3242 30.6885 78.2842 30.4725 78.2042 30.2698C78.1242 30.0618 78.0149 29.8831 77.8762 29.7338C77.7376 29.5791 77.5749 29.4591 77.3882 29.3738C77.2069 29.2831 77.0122 29.2378 76.8042 29.2378C76.5962 29.2378 76.4016 29.2831 76.2202 29.3738C76.0389 29.4591 75.8789 29.5791 75.7402 29.7338C75.6016 29.8885 75.4922 30.0698 75.4122 30.2778C75.3322 30.4805 75.2922 30.6991 75.2922 30.9338Z" fill="white"/>
<path d="M73.0018 32.9981H72.4738V29.3021H71.0098V28.8301H74.4658V29.3021H73.0018V32.9981Z" fill="white"/>
<path d="M68.7267 33.0778C68.4227 33.0778 68.1427 33.0218 67.8867 32.9098C67.636 32.7925 67.4173 32.6351 67.2307 32.4378C67.044 32.2351 66.8973 32.0031 66.7907 31.7418C66.6893 31.4805 66.6387 31.2005 66.6387 30.9018C66.6387 30.6085 66.6893 30.3338 66.7907 30.0778C66.8973 29.8165 67.0413 29.5898 67.2227 29.3978C67.4093 29.2005 67.6307 29.0458 67.8867 28.9338C68.1427 28.8165 68.42 28.7578 68.7187 28.7578C69.0227 28.7578 69.3 28.8165 69.5507 28.9338C69.8067 29.0458 70.0253 29.2005 70.2067 29.3978C70.388 29.5951 70.5293 29.8218 70.6307 30.0778C70.732 30.3338 70.7827 30.6058 70.7827 30.8938C70.7827 30.9365 70.7827 30.9791 70.7827 31.0218C70.7827 31.0645 70.78 31.0938 70.7747 31.1098H67.2067C67.2227 31.3338 67.2733 31.5418 67.3587 31.7338C67.4493 31.9205 67.564 32.0831 67.7027 32.2218C67.8413 32.3605 67.9987 32.4698 68.1747 32.5498C68.356 32.6245 68.548 32.6618 68.7507 32.6618C68.884 32.6618 69.0173 32.6431 69.1507 32.6058C69.284 32.5685 69.4067 32.5178 69.5187 32.4538C69.6307 32.3898 69.732 32.3125 69.8227 32.2218C69.9133 32.1258 69.9827 32.0218 70.0307 31.9098L70.5027 32.0378C70.4387 32.1925 70.348 32.3338 70.2307 32.4618C70.1133 32.5845 69.9773 32.6938 69.8227 32.7898C69.668 32.8805 69.4973 32.9498 69.3107 32.9978C69.124 33.0511 68.9293 33.0778 68.7267 33.0778ZM70.2627 30.6938C70.2467 30.4698 70.1933 30.2671 70.1027 30.0858C70.0173 29.8991 69.9053 29.7391 69.7667 29.6058C69.6333 29.4725 69.476 29.3685 69.2947 29.2938C69.1187 29.2191 68.9293 29.1818 68.7267 29.1818C68.524 29.1818 68.332 29.2191 68.1507 29.2938C67.9693 29.3685 67.8093 29.4725 67.6707 29.6058C67.5373 29.7391 67.428 29.8991 67.3427 30.0858C67.2627 30.2725 67.2147 30.4751 67.1987 30.6938H70.2627Z" fill="white"/>
<path d="M64.8037 28.8301C64.953 28.8301 65.089 28.8567 65.2117 28.9101C65.3397 28.9634 65.449 29.0381 65.5397 29.1341C65.6357 29.2247 65.7077 29.3314 65.7557 29.4541C65.809 29.5767 65.8357 29.7101 65.8357 29.8541C65.8357 29.9501 65.8223 30.0461 65.7957 30.1421C65.7743 30.2381 65.7397 30.3314 65.6917 30.4221C65.6437 30.5074 65.5823 30.5874 65.5077 30.6621C65.433 30.7314 65.345 30.7874 65.2437 30.8301C65.4783 30.8941 65.6623 31.0167 65.7957 31.1981C65.929 31.3794 65.9957 31.5981 65.9957 31.8541C65.9957 32.0247 65.9637 32.1794 65.8997 32.3181C65.841 32.4567 65.7557 32.5767 65.6437 32.6781C65.537 32.7794 65.409 32.8594 65.2597 32.9181C65.1103 32.9714 64.9477 32.9981 64.7717 32.9981H62.7637V28.8301H64.8037ZM64.5877 30.6701C64.8063 30.6701 64.9797 30.6007 65.1077 30.4621C65.2357 30.3234 65.2997 30.1474 65.2997 29.9341C65.2997 29.7474 65.2463 29.5847 65.1397 29.4461C65.033 29.3074 64.8677 29.2381 64.6437 29.2381H63.2917V30.6701H64.5877ZM64.7157 32.5901C64.8277 32.5901 64.929 32.5687 65.0197 32.5261C65.1157 32.4834 65.1957 32.4274 65.2597 32.3581C65.3237 32.2834 65.3743 32.2007 65.4117 32.1101C65.449 32.0194 65.4677 31.9234 65.4677 31.8221C65.4677 31.6301 65.401 31.4594 65.2677 31.3101C65.1397 31.1607 64.961 31.0861 64.7317 31.0861H63.2917V32.5901H64.7157Z" fill="white"/>
<path d="M58.1934 28.8301H58.7294V32.5261H60.7694V28.8301H61.2974V32.5261H61.9934V34.2861H61.5214V32.9981H58.1934V28.8301Z" fill="white"/>
<path d="M52.0653 30.6301H54.4013V28.8301H54.9373V32.9981H54.4013V31.0861H52.0653V32.9981H51.5293V28.8301H52.0653V30.6301Z" fill="white"/>
<path d="M47.3778 32.2301L49.8658 28.8301H50.3058V32.9981H49.7698V29.6621L47.3298 32.9981H46.8418V28.8301H47.3778V32.2301Z" fill="white"/>
<path d="M43.3274 29.2698C43.4767 29.0991 43.6501 28.9711 43.8474 28.8858C44.0501 28.8005 44.2687 28.7578 44.5034 28.7578C44.8714 28.7578 45.1621 28.8485 45.3754 29.0298C45.5887 29.2111 45.6954 29.4538 45.6954 29.7578C45.6954 30.0031 45.6287 30.2085 45.4954 30.3738C45.3674 30.5391 45.1914 30.6405 44.9674 30.6778C45.2661 30.7205 45.5007 30.8431 45.6714 31.0458C45.8421 31.2431 45.9274 31.4911 45.9274 31.7898C45.9274 31.9818 45.8927 32.1578 45.8234 32.3178C45.7541 32.4725 45.6554 32.6058 45.5274 32.7178C45.3994 32.8298 45.2447 32.9178 45.0634 32.9818C44.8821 33.0458 44.6821 33.0778 44.4634 33.0778C44.1754 33.0778 43.9301 33.0271 43.7274 32.9258C43.5247 32.8191 43.3461 32.6671 43.1914 32.4698L43.4954 32.0938C43.6181 32.2645 43.7567 32.3925 43.9114 32.4778C44.0714 32.5578 44.2634 32.5978 44.4874 32.5978C44.7807 32.5978 45.0047 32.5258 45.1594 32.3818C45.3194 32.2325 45.3994 32.0325 45.3994 31.7818C45.3994 31.5045 45.3034 31.2911 45.1114 31.1418C44.9194 30.9925 44.6447 30.9178 44.2874 30.9178H44.0074V30.4938H44.2874C44.5701 30.4938 44.7914 30.4351 44.9514 30.3178C45.1114 30.1951 45.1914 30.0218 45.1914 29.7978C45.1914 29.6111 45.1274 29.4645 44.9994 29.3578C44.8714 29.2511 44.6954 29.1978 44.4714 29.1978C44.3114 29.1978 44.1594 29.2271 44.0154 29.2858C43.8767 29.3445 43.7381 29.4431 43.5994 29.5818L43.3274 29.2698Z" fill="white"/>
<path d="M40.2414 33.0778C40.0441 33.0778 39.8601 33.0458 39.6894 32.9818C39.5241 32.9125 39.3774 32.8191 39.2494 32.7018C39.1268 32.5845 39.0308 32.4485 38.9614 32.2938C38.8921 32.1338 38.8574 31.9631 38.8574 31.7818C38.8574 31.6005 38.9001 31.4325 38.9854 31.2778C39.0708 31.1231 39.1908 30.9898 39.3454 30.8778C39.5001 30.7658 39.6841 30.6805 39.8974 30.6218C40.1108 30.5578 40.3454 30.5258 40.6014 30.5258C40.8148 30.5258 41.0308 30.5445 41.2494 30.5818C41.4681 30.6191 41.6628 30.6725 41.8334 30.7418V30.3658C41.8334 29.9978 41.7294 29.7071 41.5214 29.4938C41.3134 29.2751 41.0254 29.1658 40.6574 29.1658C40.4441 29.1658 40.2254 29.2085 40.0014 29.2938C39.7774 29.3791 39.5508 29.5018 39.3214 29.6618L39.1294 29.3018C39.6681 28.9391 40.1908 28.7578 40.6974 28.7578C41.2201 28.7578 41.6308 28.9045 41.9294 29.1978C42.2281 29.4911 42.3774 29.8965 42.3774 30.4138V32.2938C42.3774 32.4431 42.4441 32.5178 42.5774 32.5178V32.9978C42.4868 33.0138 42.4174 33.0218 42.3694 33.0218C42.2308 33.0218 42.1214 32.9871 42.0414 32.9178C41.9668 32.8485 41.9268 32.7525 41.9214 32.6298L41.9054 32.3018C41.7134 32.5525 41.4708 32.7445 41.1774 32.8778C40.8894 33.0111 40.5774 33.0778 40.2414 33.0778ZM40.3694 32.6618C40.6521 32.6618 40.9108 32.6085 41.1454 32.5018C41.3854 32.3951 41.5668 32.2538 41.6894 32.0778C41.7374 32.0298 41.7721 31.9791 41.7934 31.9258C41.8201 31.8671 41.8334 31.8138 41.8334 31.7658V31.0858C41.6521 31.0165 41.4628 30.9631 41.2654 30.9258C41.0734 30.8885 40.8761 30.8698 40.6734 30.8698C40.2894 30.8698 39.9774 30.9498 39.7374 31.1098C39.4974 31.2698 39.3774 31.4805 39.3774 31.7418C39.3774 31.8698 39.4014 31.9898 39.4494 32.1018C39.5028 32.2138 39.5721 32.3125 39.6574 32.3978C39.7481 32.4778 39.8548 32.5418 39.9774 32.5898C40.1001 32.6378 40.2308 32.6618 40.3694 32.6618Z" fill="white"/>
<path d="M38.5186 29.2461H36.5106V32.9981H35.9746V28.8301H38.5186V29.2461Z" fill="white"/>
<path d="M32.6477 33.0778C32.4503 33.0778 32.2663 33.0458 32.0957 32.9818C31.9303 32.9125 31.7837 32.8191 31.6557 32.7018C31.533 32.5845 31.437 32.4485 31.3677 32.2938C31.2983 32.1338 31.2637 31.9631 31.2637 31.7818C31.2637 31.6005 31.3063 31.4325 31.3917 31.2778C31.477 31.1231 31.597 30.9898 31.7517 30.8778C31.9063 30.7658 32.0903 30.6805 32.3037 30.6218C32.517 30.5578 32.7517 30.5258 33.0077 30.5258C33.221 30.5258 33.437 30.5445 33.6557 30.5818C33.8743 30.6191 34.069 30.6725 34.2397 30.7418V30.3658C34.2397 29.9978 34.1357 29.7071 33.9277 29.4938C33.7197 29.2751 33.4317 29.1658 33.0637 29.1658C32.8503 29.1658 32.6317 29.2085 32.4077 29.2938C32.1837 29.3791 31.957 29.5018 31.7277 29.6618L31.5357 29.3018C32.0743 28.9391 32.597 28.7578 33.1037 28.7578C33.6263 28.7578 34.037 28.9045 34.3357 29.1978C34.6343 29.4911 34.7837 29.8965 34.7837 30.4138V32.2938C34.7837 32.4431 34.8503 32.5178 34.9837 32.5178V32.9978C34.893 33.0138 34.8237 33.0218 34.7757 33.0218C34.637 33.0218 34.5277 32.9871 34.4477 32.9178C34.373 32.8485 34.333 32.7525 34.3277 32.6298L34.3117 32.3018C34.1197 32.5525 33.877 32.7445 33.5837 32.8778C33.2957 33.0111 32.9837 33.0778 32.6477 33.0778ZM32.7757 32.6618C33.0583 32.6618 33.317 32.6085 33.5517 32.5018C33.7917 32.3951 33.973 32.2538 34.0957 32.0778C34.1437 32.0298 34.1783 31.9791 34.1997 31.9258C34.2263 31.8671 34.2397 31.8138 34.2397 31.7658V31.0858C34.0583 31.0165 33.869 30.9631 33.6717 30.9258C33.4797 30.8885 33.2823 30.8698 33.0797 30.8698C32.6957 30.8698 32.3837 30.9498 32.1437 31.1098C31.9037 31.2698 31.7837 31.4805 31.7837 31.7418C31.7837 31.8698 31.8077 31.9898 31.8557 32.1018C31.909 32.2138 31.9783 32.3125 32.0637 32.3978C32.1543 32.4778 32.261 32.5418 32.3837 32.5898C32.5063 32.6378 32.637 32.6618 32.7757 32.6618Z" fill="white"/>
<path d="M29.7508 32.9984V28.3344L27.6788 31.9424H27.3508L25.2788 28.3344V32.9984H24.7188V27.3184H25.2947L27.5108 31.2064L29.7428 27.3184H30.3108V32.9984H29.7508Z" fill="white"/>
</svg>
