<svg width="30" height="30" viewBox="0 0 30 30" fill="none" xmlns="http://www.w3.org/2000/svg">
<path d="M26.2378 29.998H3.75147C3.25523 30.0145 2.76099 29.9277 2.29999 29.7433C1.83899 29.5589 1.42128 29.2809 1.07325 28.9268C0.721824 28.5812 0.445339 28.167 0.261027 27.7099C0.0767155 27.2528 -0.0114721 26.7626 0.00196123 26.27V3.75147C-0.0144506 3.25523 0.0722853 2.76099 0.256684 2.29999C0.441083 1.839 0.719132 1.42128 1.07325 1.07325C1.42128 0.719132 1.83899 0.441083 2.29999 0.256684C2.76099 0.0722853 3.25523 -0.0144506 3.75147 0.00196123H26.2485C26.7448 -0.0144506 27.239 0.0722853 27.7 0.256684C28.161 0.441083 28.5787 0.719132 28.9268 1.07325C29.2809 1.42128 29.5589 1.839 29.7433 2.29999C29.9277 2.76099 30.0145 3.25523 29.998 3.75147V26.2485C29.9924 27.2431 29.5941 28.1951 28.8898 28.8974C28.1855 29.5996 27.2324 29.9952 26.2378 29.998ZM23.024 22.3169C23.6607 22.3744 24.2998 22.2361 24.8559 21.9205C25.0429 21.7617 25.1885 21.5597 25.28 21.332C25.3714 21.1042 25.406 20.8577 25.3808 20.6136V8.95793C25.3834 8.73254 25.3401 8.50898 25.2536 8.30086C25.167 8.09274 25.039 7.90442 24.8773 7.74738C24.7218 7.58361 24.5338 7.4542 24.3253 7.36748C24.1168 7.28077 23.8925 7.23866 23.6667 7.24387H6.24757C6.02218 7.24124 5.79862 7.28452 5.5905 7.37109C5.38238 7.45765 5.19406 7.58568 5.03702 7.74738C4.87563 7.9024 4.74769 8.08884 4.6611 8.29519C4.5745 8.50155 4.53108 8.72345 4.53351 8.94722V20.6136C4.53108 20.8373 4.5745 21.0592 4.6611 21.2656C4.74769 21.4719 4.87563 21.6584 5.03702 21.8134C5.19406 21.9751 5.38238 22.1031 5.5905 22.1897C5.79862 22.2762 6.02218 22.3195 6.24757 22.3169H23.024ZM7.27601 21.5027V11.9361L14.1965 16.7033L7.27601 21.5027ZM22.424 21.8991H7.50098L14.6036 16.939C14.7036 17.0337 14.8312 17.0938 14.9679 17.1104C15.0953 17.0756 15.2151 17.0175 15.3214 16.939L22.424 21.8991ZM14.925 13.1681L7.50098 7.67239H22.3919L14.925 13.1681ZM22.574 21.5027L15.6535 16.7033L22.574 11.9361V21.5027Z" fill="white"/>
</svg>
