<svg width="30" height="31" viewBox="0 0 30 31" fill="none" xmlns="http://www.w3.org/2000/svg">
<path d="M0.00602007 31L2.03402 23.2996C0.697726 20.9325 -0.00433595 18.2404 2.01483e-05 15.5C2.01483e-05 6.93935 6.71552 0 15 0C23.2845 0 30 6.93935 30 15.5C30 24.0606 23.2845 31 15 31C12.3492 31.0044 9.745 30.2795 7.45502 28.8997L0.00602007 31ZM9.58651 8.2274C9.39281 8.23982 9.20353 8.29254 9.03001 8.38239C8.8673 8.47761 8.71876 8.59664 8.58901 8.7358C8.40901 8.91094 8.30702 9.06284 8.19752 9.21009C7.64313 9.95564 7.34493 10.8708 7.35002 11.811C7.35302 12.5705 7.54502 13.3098 7.84502 14.0011C8.45851 15.3992 9.46801 16.8795 10.8015 18.2512C11.1225 18.5814 11.436 18.9131 11.7735 19.2215C13.4286 20.7273 15.4009 21.8132 17.5335 22.3928L18.387 22.5277C18.6645 22.5432 18.942 22.5215 19.221 22.5075C19.6579 22.4842 20.0844 22.362 20.4705 22.1495C20.7195 22.0131 20.8365 21.9449 21.045 21.8085C21.045 21.8085 21.1095 21.7651 21.2325 21.669C21.435 21.514 21.5595 21.4039 21.7275 21.2226C21.852 21.0893 21.96 20.9327 22.0425 20.7545C22.1595 20.5018 22.2765 20.0198 22.3245 19.6183C22.3605 19.3114 22.35 19.144 22.3455 19.0402C22.3395 18.8743 22.206 18.7023 22.0605 18.6294L21.1875 18.2249C21.1875 18.2249 19.8825 17.6374 19.086 17.2623C19.002 17.2245 18.912 17.203 18.8205 17.1988C18.7179 17.1879 18.6142 17.1998 18.5164 17.2338C18.4186 17.2677 18.329 17.3229 18.2535 17.3956V17.3925C18.246 17.3925 18.1455 17.4809 17.061 18.8387C16.9988 18.9251 16.913 18.9904 16.8147 19.0263C16.7164 19.0622 16.61 19.067 16.509 19.0402C16.4113 19.0132 16.3155 18.979 16.2225 18.9379C16.0365 18.8573 15.972 18.8263 15.8445 18.7689L15.837 18.7658C14.9789 18.3787 14.1843 17.8558 13.482 17.2158C13.293 17.0453 13.1175 16.8593 12.9375 16.6795C12.3474 16.0956 11.8331 15.4349 11.4075 14.7141L11.319 14.5669C11.2554 14.4679 11.2041 14.3612 11.166 14.2491C11.109 14.0213 11.2575 13.8384 11.2575 13.8384C11.2575 13.8384 11.622 13.4261 11.7915 13.2029C11.9326 13.0174 12.0643 12.8244 12.186 12.6247C12.363 12.3302 12.4185 12.028 12.3255 11.7939C11.9055 10.7337 11.4705 9.67819 11.0235 8.63039C10.935 8.42269 10.6725 8.27389 10.434 8.24444C10.353 8.23514 10.272 8.22584 10.191 8.21964C9.98957 8.2093 9.78772 8.21292 9.58651 8.2274Z" fill="white"/>
</svg>
