<svg width="30" height="30" viewBox="0 0 30 30" fill="none" xmlns="http://www.w3.org/2000/svg">
<path fill-rule="evenodd" clip-rule="evenodd" d="M2.1 2.1C1.78814e-07 4.22 0 7.61 0 14.4V15.6C0 22.38 1.78814e-07 25.77 2.1 27.9C4.22 30 7.61 30 14.4 30H15.6C22.38 30 25.77 30 27.9 27.9C30 25.7801 30 22.39 30 15.6V14.4C30 7.62 30 4.23 27.9 2.1C25.7801 1.78814e-07 22.39 0 15.6 0H14.4C7.62 0 4.23 1.78814e-07 2.1 2.1ZM5.06 9.13C5.22 16.93 9.12 21.6101 15.96 21.6101H16.3601V17.15C18.87 17.4 20.7701 19.24 21.5299 21.6101H25.08C24.7159 20.2633 24.0703 19.0091 23.1861 17.93C22.3018 16.851 21.1989 15.9717 19.95 15.35C21.0692 14.6685 22.0357 13.7634 22.7893 12.6915C23.5429 11.6196 24.0675 10.4038 24.33 9.12H21.1099C20.41 11.6 18.33 13.8499 16.3601 14.0599V9.13H13.1299V17.7701C11.13 17.2699 8.61 14.85 8.49999 9.13H5.06Z" fill="white"/>
</svg>
